Coordinates
version=1
nRows=20
nColumns=34
inDegrees=yes

Units are S.I. units (second, meters, Newtons, ...)
If the header above contains a line with 'inDegrees', this indicates whether rotational values are in degrees (yes) or radians (no).

endheader
time	pelvis_tilt	pelvis_list	pelvis_rotation	pelvis_tx	pelvis_ty	pelvis_tz	hip_flexion_r	hip_adduction_r	hip_rotation_r	knee_angle_r	ankle_angle_r	subtalar_angle_r	mtp_angle_r	hip_flexion_l	hip_adduction_l	hip_rotation_l	knee_angle_l	ankle_angle_l	subtalar_angle_l	mtp_angle_l	lumbar_extension	lumbar_bending	lumbar_rotation	arm_flex_r	arm_add_r	arm_rot_r	elbow_flex_r	pro_sup_r	arm_flex_l	arm_add_l	arm_rot_l	elbow_flex_l	pro_sup_l
      6.85000000	    -23.22251457	      2.52324910	      6.77585683	     -0.03022537	      0.68110929	      0.07894438	     81.69704938	     10.10731093	      0.68727467	     92.64689409	     34.89406289	    -23.55101862	      0.00000000	     94.82922237	     -4.19692115	      0.51256585	     36.47322122	     -6.35882352	    -19.51286178	      0.00000000	    -25.29837426	      0.59475498	      6.63422059	    111.61809035	     -4.48179590	     72.61538396	    120.75920679	     83.04463109	    113.71582436	     -3.59488675	     83.21267824	    115.90300992	     78.49647897
      6.86666670	    -23.77536115	      2.38709440	      6.94244875	     -0.02471425	      0.66954100	      0.07720438	     83.54544066	     10.35356324	      0.33028811	     94.55534730	     34.88714392	    -24.28496398	      0.00000000	     96.30147784	     -4.31455724	      0.44845571	     37.33298340	     -6.34027806	    -19.47559096	      0.00000000	    -25.25725381	      0.80382626	      6.76148880	    111.86465132	     -4.69584511	     72.47980414	    121.27646034	     82.50613103	    114.62120001	     -3.42037284	     84.51987013	    115.69702423	     78.28262043
      6.88333330	    -24.07813397	      2.50580869	      7.04711960	     -0.02805260	      0.66315105	      0.07847342	     84.94097198	     10.66075935	      0.50707894	     95.88161399	     34.58336257	    -24.83779462	      0.00000000	     97.17887607	     -4.47147302	      0.21050303	     37.85690016	     -6.26896736	    -19.13974836	      0.00000000	    -25.66481822	      0.63933083	      6.99563273	    112.21927885	     -5.18024866	     72.29438754	    121.58478910	     81.41166729	    115.82606034	     -3.39035911	     85.73965268	    115.40030129	     77.69393141
      6.90000000	    -24.35085652	      2.53975009	      7.01852768	     -0.02898994	      0.65475005	      0.07843620	     86.29157528	     10.98652304	      0.49794144	     97.03381259	     34.93038827	    -25.11686039	      0.00000000	     98.06210461	     -4.72709910	      0.22228608	     38.29870999	     -6.48020176	    -19.24146046	      0.00000000	    -26.21109776	      0.64733459	      7.23148287	    112.83161639	     -5.04692664	     72.16462921	    121.44686441	     81.21669350	    116.46366151	     -3.51332310	     85.84615913	    114.93252024	     77.55337471
      6.91666670	    -24.65606474	      2.62135188	      6.91452886	     -0.03348969	      0.64634089	      0.08077018	     87.75147517	     11.51776004	      0.61780771	     98.17823159	     35.12577958	    -25.25231581	      0.00000000	     98.94957540	     -5.08371330	      0.17982889	     38.51486750	     -6.70221824	    -19.28599320	      0.00000000	    -26.76872719	      0.60261991	      7.62796822	    113.67247948	     -5.04521611	     72.13233282	    121.37338967	     80.98964321	    117.36187678	     -3.73240046	     86.28677091	    114.27894014	     77.39019995
      6.93333330	    -24.72413107	      2.81464877	      6.65149215	     -0.03475453	      0.63897962	      0.08186901	     88.92076725	     12.21856880	      0.75836267	     99.37592265	     34.99030132	    -25.64253053	      0.00000000	     99.47455633	     -5.66975550	      0.22251863	     38.28513038	     -7.24798046	    -19.27014011	      0.00000000	    -27.55584317	      0.04236141	      8.61873075	    114.54089272	     -5.98027978	     72.49142940	    122.37272545	     72.18942354	    119.02908908	     -2.83147973	     88.15966047	    113.14673078	     69.84717412
      6.95000000	    -24.90571196	      2.95890131	      6.61935181	     -0.03581198	      0.63279587	      0.08432782	     90.11168263	     12.60630079	      0.75018634	    100.55252093	     34.40150102	    -26.01707145	      0.00000000	    100.10371077	     -6.07116565	      0.24867003	     37.91212748	     -7.86195704	    -19.41290743	      0.00000000	    -28.48375160	     -0.08748492	      8.71773368	    115.85274222	     -5.84205899	     72.82199767	    121.69032103	     71.97059087	    120.74905006	     -3.39048483	     88.70509994	    112.17793765	     69.53571246
      6.96666670	    -25.12495867	      3.16948338	      6.55473566	     -0.03827606	      0.62398559	      0.08597727	     91.39065126	     13.11712800	      0.94137225	    101.77994859	     33.79755111	    -26.31466383	      0.00000000	    100.81307492	     -6.55404879	      0.36511878	     37.60794240	     -8.55322222	    -19.44916225	      0.00000000	    -29.32029992	     -0.30685887	      9.33342704	    117.12717715	     -6.05482748	     73.06383748	    121.64045774	     71.65101238	    122.33936483	     -3.77208567	     89.59941799	    112.43120882	     69.19932357
      6.98333330	    -25.38220726	      3.27973196	      6.39039445	     -0.03536496	      0.61485815	      0.08480960	     92.54294655	     13.63067529	      0.90601510	    103.11273856	     33.48237574	    -26.56227275	      0.00000000	    101.64473806	     -7.16130747	      0.56579711	     37.44442294	     -9.01204741	    -19.36378114	      0.00000000	    -29.74091922	     -0.44091873	      9.93140166	    117.80448685	     -6.28998406	     73.25002050	    122.36999778	     71.34301639	    123.49601480	     -3.77650925	     90.86126565	    113.44744453	     68.91701626
      7.00000000	    -25.75630435	      3.43185906	      6.25699278	     -0.03517277	      0.60506292	      0.08342209	     93.86382551	     13.96052544	      0.77362676	    104.65899849	     33.04364658	    -26.98488041	      0.00000000	    102.59779619	     -7.64969556	      0.77494983	     37.32450566	     -9.29978413	    -19.52584006	      0.00000000	    -30.00942987	     -0.52017200	     10.55942197	    118.36228489	     -6.54688759	     73.35974186	    122.79910457	     70.93220124	    124.95735719	     -3.93372928	     92.45443981	    113.56999913	     68.59190832
      7.01666670	    -25.72245501	      3.63113960	      6.16235360	     -0.03973091	      0.59637437	      0.08444097	     95.11853430	     14.21838077	      0.75394234	    106.32797530	     32.80811484	    -27.15308178	      0.00000000	    103.07717514	     -8.23162102	      0.48466056	     36.63377532	     -9.77993147	    -19.53357358	      0.00000000	    -30.65787418	     -0.60779659	     11.23437763	    118.92617258	     -7.11276339	     72.99833508	    123.20129495	     70.19812455	    126.54970051	     -4.29859079	     94.05087431	    114.47035198	     68.07158084
      7.03333330	    -25.68353224	      3.78281876	      6.42194887	     -0.04195090	      0.59376103	      0.08628613	     95.92312969	     14.16099451	      0.82097721	    107.27381464	     32.13506982	    -27.18523174	      0.00000000	    103.18437567	     -8.51063549	      0.21852396	     35.43417205	    -10.97386124	    -19.79691247	      0.00000000	    -31.67183093	     -0.48712467	     11.78753661	    119.55813736	     -7.54917232	     73.26186653	    123.10879748	     69.40920375	    128.25255721	     -4.32277640	     95.43800878	    114.48041285	     67.48538671
      7.05000000	    -25.47627375	      3.95911539	      6.64307125	     -0.04580778	      0.58445712	      0.08806106	     96.76399217	     14.25553322	      0.79419030	    108.19111300	     31.17037686	    -27.66849612	      0.00000000	    103.04169809	     -8.93680007	     -0.29365381	     33.88705402	    -11.71842259	    -19.15054357	      0.00000000	    -32.80309490	     -0.44017870	     11.87829286	    120.32311496	     -7.32813007	     72.66070446	    122.19001849	     66.76657199	    130.07495997	     -4.55181781	     96.57186323	    115.80706305	     65.33233633
      7.06666670	    -25.67862641	      3.95493237	      6.63381444	     -0.04761891	      0.57407013	      0.08486523	     98.22525089	     14.55995666	      0.61268299	    109.36472155	     31.17740170	    -27.50601260	      0.00000000	    103.72706215	     -9.30559813	     -0.17481746	     33.05225855	    -12.26798273	    -19.05683559	      0.00000000	    -33.20502741	     -0.26272222	     12.55922698	    120.95072973	     -7.77286679	     72.91759051	    121.92130777	     66.33600410	    131.57867208	     -4.30524177	     97.44770485	    116.35892487	     64.98943307
      7.08333330	    -25.67365481	      4.02642625	      6.81372677	     -0.04702553	      0.56593261	      0.08599392	     99.41760212	     14.89875004	      0.48429726	    110.64696830	     31.35455961	    -27.70587371	      0.00000000	    103.92881350	     -9.60038943	     -0.11851194	     32.18354691	    -12.45814375	    -18.77590195	      0.00000000	    -33.82272139	     -0.15916571	     12.73278424	    121.36338835	     -7.95424127	     72.59360092	    121.54167258	     65.76706821	    133.03932152	     -4.10771760	     98.21445890	    117.13438908	     64.52675604
      7.10000000	    -25.61167766	      4.28953798	      6.94175718	     -0.05254267	      0.55521692	      0.08347329	    100.46364090	     15.16922325	      0.70746870	    111.84561877	     31.75592387	    -27.60354179	      0.00000000	    104.25488773	     -9.81441508	     -0.23127613	     31.59755062	    -12.68992076	    -18.75902320	      0.00000000	    -34.55763308	     -0.07862243	     12.54662854	    122.10459732	     -7.81061141	     72.30329354	    121.32654162	     65.12309684	    134.66110575	     -3.92370107	     98.17377837	    117.84771057	     63.91295910
      7.11666670	    -25.73188675	      4.40382896	      6.91973980	     -0.04902861	      0.54954136	      0.08218757	    101.44208412	     15.67098102	      0.86552761	    112.86989133	     32.16585568	    -27.81711850	      0.00000000	    104.46979439	    -10.26641799	     -0.25633691	     30.59092384	    -13.19381370	    -18.65955415	      0.00000000	    -34.97761416	      0.10754567	     12.52518747	    122.16023369	     -7.61837801	     72.27390361	    121.28479892	     64.97659797	    135.18075527	     -4.24210586	     98.37978580	    117.03045330	     63.72889226
      7.13333330	    -25.83839218	      4.91589728	      6.98605159	     -0.05233722	      0.54114536	      0.08314303	    102.51775610	     16.15381818	      1.29188422	    114.06801132	     32.20269831	    -28.00942913	      0.00000000	    104.51377697	    -10.53856236	     -0.38068347	     29.48819265	    -13.58540753	    -19.15331323	      0.00000000	    -35.41974014	     -0.27426142	     11.95307315	    121.98212080	     -7.34276639	     71.64453708	    120.94114679	     64.30878138	    136.16197685	     -4.13252602	     99.19269103	    116.76155832	     62.98102381
      7.15000000	    -25.69389524	      5.07334026	      7.36342852	     -0.05418671	      0.52591223	      0.08202090	    103.82126194	     16.53961865	      1.44576258	    115.88599747	     32.22977658	    -28.20744888	      0.00000000	    105.11387868	    -10.66553237	     -0.59790430	     28.94000125	    -14.02096929	    -18.68968015	      0.00000000	    -35.81825323	      0.01699187	     11.79738541	    122.54197952	     -7.01736843	     71.17063872	    120.88536198	     64.14962245	    136.56134598	     -3.72754499	     98.67155214	    116.69505867	     62.75955273
      7.16666670	    -25.42352421	      5.47025430	      7.69538972	     -0.05558975	      0.51812494	      0.07994132	    104.52310942	     16.94072187	      2.16399156	    117.46507311	     32.65563044	    -27.54123776	      0.00000000	    105.23337860	    -10.70776778	     -1.09125087	     28.45475484	    -13.79674800	    -17.62819998	      0.00000000	    -36.61045240	     -0.13576054	     11.48304314	    123.29522293	     -7.10219391	     71.24557807	    121.59635202	     60.82867266	    136.95148082	     -2.80091573	     98.49465432	    116.24992240	     57.62646738
